<?xml version="1.0" encoding="utf-8"?>
<svg xmlns="http://www.w3.org/2000/svg" viewBox="0 0 67.379677 106.84492" height="106.84492" width="67.379677">
	<path d="m 19.251336,105.15894 c -2.538923,-1.13918 -3.451431,-2.40445 -3.684784,-4.44637 -0.544504,-4.764595 0.65353,-7.154595 6.938978,-13.842816 7.550567,-8.034408 9.649262,-11.900491 8.915321,-16.42324 -0.301062,-1.85523 -4.239228,-9.54071 -8.751478,-17.078843 C 13.829197,38.599339 11.182965,31.406861 12.477634,25.666462 14.986427,14.542804 27.683597,4.8392716 44.250098,1.3850573 48.105702,0.58114082 51.484746,0.14784883 51.759083,0.42218617 52.03342,0.69652351 49.095155,3.8491779 45.229605,7.4280848 29.546387,21.948341 29.663936,34.689708 45.648226,52.803498 c 7.432699,8.422918 8.271318,12.414143 8.045483,20.831281 -0.358101,13.346838 -8.07236,24.208245 -20.007446,30.172271 -6.943168,3.46954 -10.791437,2.98667 -14.434927,1.35189 z" style="fill:#6b390a"/>
</svg>
