<?xml version="1.0" encoding="utf-8"?>
<svg xmlns="http://www.w3.org/2000/svg" viewBox="0 0 348.1 348.1">
	<path d="M308.1,8.85h-108c-8.4,0-16.4,3.2-22.4,9.2L17.3,177.65c-12.4,12.4-12.4,32.8,0,45.2l107.2,107.2  c12.4,12.4,32.8,12.4,45.2,0l160.8-160.4c6-6,9.6-14,9.6-22.8v-106C340.1,23.25,325.7,8.85,308.1,8.85z M260.1,120.85  c-17.6,0-32-14.4-32-32s14.4-32,32-32s32,14.4,32,32S277.7,120.85,260.1,120.85z" style="fill:#f5ce85"/>
	<path d="M147.3,347.25c-10.8,0-20.8-4-28.4-11.6L11.7,228.45c-15.6-15.6-15.6-40.8,0-56.4l160.4-159.6  c7.6-7.6,17.2-11.6,28-11.6h108c22,0,40,18,40,40v106c0,10.8-4.4,20.8-12,28.4l-160.8,160.4C167.7,343.25,157.7,347.25,147.3,347.25  z M200.1,16.85c-6.4,0-12.4,2.4-16.8,6.8L22.9,183.25c-9.2,9.2-9.2,24.4,0,34l107.2,107.2c4.4,4.4,10.4,6.8,16.8,6.8  s12.4-2.4,16.8-6.8l160.8-160.4c4.8-4.8,7.2-10.8,7.2-17.2v-106c0-13.2-10.8-24-24-24H200.1z M260.1,128.85c-22,0-40-18-40-40  s18-40,40-40s40,18,40,40S282.1,128.85,260.1,128.85z M260.1,64.85c-13.2,0-24,10.8-24,24s10.8,24,24,24s24-10.8,24-24  S273.3,64.85,260.1,64.85z" style="fill:#6b3909"/>
	<path d="m 129.09537,294.31225 c -5.11624,-2.29558 -6.95504,-4.84525 -7.42529,-8.95996 -1.09723,-9.60121 1.31694,-14.41734 13.98286,-27.89489 15.21529,-16.19029 19.4444,-23.98089 17.96543,-33.09477 -0.60668,-3.73851 -8.54255,-19.22565 -17.63527,-34.41587 -17.81398,-29.75995 -23.14645,-44.25362 -20.53754,-55.82121 5.05551,-22.41548 30.64181,-41.969241 64.02526,-48.929901 7.76948,-1.61997 14.57867,-2.49312 15.13148,-1.9403 0.55282,0.55283 -5.36812,6.90579 -13.15766,14.117721 -31.60353,29.26003 -31.36666,54.93538 0.84357,91.4368 14.97777,16.97317 16.66769,25.01597 16.21259,41.97748 -0.72161,26.89546 -16.26675,48.78248 -40.31737,60.80068 -13.99128,6.99153 -21.746,6.01849 -29.08806,2.72422 z" style="fill:#6b390a"/>
</svg>
